<svg xmlns="http://www.w3.org/2000/svg" xmlns:xlink="http://www.w3.org/1999/xlink" width="6912" zoomAndPan="magnify" viewBox="0 0 5184 2592.000001" height="3456" preserveAspectRatio="xMidYMid meet" version="1.0"><defs><g/><clipPath id="7a91c96299"><path d="M 2299.738281 842 L 2884.5625 842 L 2884.5625 1481 L 2299.738281 1481 Z M 2299.738281 842 " clip-rule="nonzero"/></clipPath><clipPath id="e72154cc22"><path d="M 2299.738281 1061.660156 L 2299.738281 1260.945312 C 2299.738281 1303.703125 2322.566406 1343.222656 2359.617188 1364.601562 L 2532.289062 1464.238281 C 2569.335938 1485.617188 2614.992188 1485.617188 2652.042969 1464.238281 L 2824.714844 1364.601562 C 2861.761719 1343.222656 2884.59375 1303.703125 2884.59375 1260.945312 L 2884.59375 1061.660156 C 2884.59375 1018.90625 2861.761719 979.382812 2824.714844 958.003906 L 2652.042969 858.371094 C 2614.992188 836.992188 2569.335938 836.992188 2532.289062 858.371094 L 2359.617188 958.003906 C 2322.566406 979.398438 2299.738281 1018.90625 2299.738281 1061.660156 Z M 2299.738281 1061.660156 " clip-rule="nonzero"/></clipPath></defs><path fill="#ffffff" d="M 1 0 L 5183 0 L 5183 2591 L 1 2591 Z M 1 0 " fill-opacity="1" fill-rule="nonzero"/><path fill="#fbcccc" d="M 1 0 L 5183 0 L 5183 2591 L 1 2591 Z M 1 0 " fill-opacity="1" fill-rule="nonzero"/><g clip-path="url(#7a91c96299)"><g clip-path="url(#e72154cc22)"><path fill="#36699f" d="M 2299.738281 1485.617188 L 2299.738281 836.992188 L 2884.5625 836.992188 L 2884.5625 1485.617188 Z M 2299.738281 1485.617188 " fill-opacity="1" fill-rule="nonzero"/></g></g><g fill="#ff00ff" fill-opacity="1"><g transform="translate(2431.384912, 1352.729123)"><g><path d="M 160.949219 0.53125 C 281.527344 0 331.457031 -60.023438 331.457031 -189.101562 C 331.457031 -318.710938 281.527344 -368.109375 160.949219 -368.109375 L 86.050781 -368.109375 C 56.835938 -368.109375 40.902344 -351.644531 40.902344 -320.835938 C 40.902344 -159.886719 40.371094 -92.425781 39.839844 -44.089844 C 39.839844 -15.40625 55.773438 0 84.988281 0 Z M 139.703125 -73.304688 C 139.171875 -91.363281 139.171875 -111.015625 139.171875 -130.140625 C 139.171875 -220.972656 139.171875 -258.15625 139.703125 -294.808594 L 158.824219 -294.808594 C 216.191406 -294.808594 233.191406 -265.589844 233.191406 -184.320312 C 233.191406 -113.140625 214.066406 -73.304688 158.824219 -73.304688 Z M 139.703125 -73.304688 "/></g></g></g><g fill="#00ffff" fill-opacity="1"><g transform="translate(2411.465086, 1352.729123)"><g><path d="M 160.949219 0.53125 C 281.527344 0 331.457031 -60.023438 331.457031 -189.101562 C 331.457031 -318.710938 281.527344 -368.109375 160.949219 -368.109375 L 86.050781 -368.109375 C 56.835938 -368.109375 40.902344 -351.644531 40.902344 -320.835938 C 40.902344 -159.886719 40.371094 -92.425781 39.839844 -44.089844 C 39.839844 -15.40625 55.773438 0 84.988281 0 Z M 139.703125 -73.304688 C 139.171875 -91.363281 139.171875 -111.015625 139.171875 -130.140625 C 139.171875 -220.972656 139.171875 -258.15625 139.703125 -294.808594 L 158.824219 -294.808594 C 216.191406 -294.808594 233.191406 -265.589844 233.191406 -184.320312 C 233.191406 -113.140625 214.066406 -73.304688 158.824219 -73.304688 Z M 139.703125 -73.304688 "/></g></g></g><g fill="#fbcccc" fill-opacity="1"><g transform="translate(2421.425011, 1352.729123)"><g><path d="M 160.949219 0.53125 C 281.527344 0 331.457031 -60.023438 331.457031 -189.101562 C 331.457031 -318.710938 281.527344 -368.109375 160.949219 -368.109375 L 86.050781 -368.109375 C 56.835938 -368.109375 40.902344 -351.644531 40.902344 -320.835938 C 40.902344 -159.886719 40.371094 -92.425781 39.839844 -44.089844 C 39.839844 -15.40625 55.773438 0 84.988281 0 Z M 139.703125 -73.304688 C 139.171875 -91.363281 139.171875 -111.015625 139.171875 -130.140625 C 139.171875 -220.972656 139.171875 -258.15625 139.703125 -294.808594 L 158.824219 -294.808594 C 216.191406 -294.808594 233.191406 -265.589844 233.191406 -184.320312 C 233.191406 -113.140625 214.066406 -73.304688 158.824219 -73.304688 Z M 139.703125 -73.304688 "/></g></g></g><g fill="#7786a7" fill-opacity="1"><g transform="translate(2113.468093, 1719.596967)"><g><path d="M 10.453125 0 L 10.453125 -90.0625 L 35.875 -90.0625 C 43.707031 -90.0625 50.632812 -88.328125 56.65625 -84.859375 C 62.675781 -81.398438 67.328125 -76.472656 70.609375 -70.078125 C 73.890625 -63.691406 75.550781 -56.351562 75.59375 -48.0625 L 75.59375 -42.3125 C 75.59375 -33.8125 73.953125 -26.363281 70.671875 -19.96875 C 67.390625 -13.582031 62.707031 -8.675781 56.625 -5.25 C 50.550781 -1.832031 43.472656 -0.0820312 35.390625 0 Z M 22.328125 -80.296875 L 22.328125 -9.71875 L 34.828125 -9.71875 C 43.984375 -9.71875 51.109375 -12.5625 56.203125 -18.25 C 61.296875 -23.9375 63.84375 -32.039062 63.84375 -42.5625 L 63.84375 -47.8125 C 63.84375 -58.039062 61.4375 -65.988281 56.625 -71.65625 C 51.820312 -77.332031 45.007812 -80.210938 36.1875 -80.296875 Z M 22.328125 -80.296875 "/></g></g></g><g fill="#7786a7" fill-opacity="1"><g transform="translate(2196.541315, 1719.596967)"><g><path d="M 60.1875 -23.5 L 22.453125 -23.5 L 13.984375 0 L 1.734375 0 L 36.125 -90.0625 L 46.515625 -90.0625 L 80.96875 0 L 68.78125 0 Z M 26.046875 -33.28125 L 56.65625 -33.28125 L 41.328125 -75.40625 Z M 26.046875 -33.28125 "/></g></g></g><g fill="#7786a7" fill-opacity="1"><g transform="translate(2279.181542, 1719.596967)"><g><path d="M 72.6875 -80.296875 L 43.734375 -80.296875 L 43.734375 0 L 31.921875 0 L 31.921875 -80.296875 L 3.03125 -80.296875 L 3.03125 -90.0625 L 72.6875 -90.0625 Z M 72.6875 -80.296875 "/></g></g></g><g fill="#7786a7" fill-opacity="1"><g transform="translate(2354.770132, 1719.596967)"><g><path d="M 60.1875 -23.5 L 22.453125 -23.5 L 13.984375 0 L 1.734375 0 L 36.125 -90.0625 L 46.515625 -90.0625 L 80.96875 0 L 68.78125 0 Z M 26.046875 -33.28125 L 56.65625 -33.28125 L 41.328125 -75.40625 Z M 26.046875 -33.28125 "/></g></g></g><g fill="#7786a7" fill-opacity="1"><g transform="translate(2437.410358, 1719.596967)"><g/></g></g><g fill="#7786a7" fill-opacity="1"><g transform="translate(2468.771582, 1719.596967)"><g><path d="M 76.703125 -28.578125 C 75.585938 -19.054688 72.070312 -11.707031 66.15625 -6.53125 C 60.238281 -1.351562 52.375 1.234375 42.5625 1.234375 C 31.914062 1.234375 23.382812 -2.578125 16.96875 -10.203125 C 10.5625 -17.835938 7.359375 -28.046875 7.359375 -40.828125 L 7.359375 -49.484375 C 7.359375 -57.859375 8.851562 -65.21875 11.84375 -71.5625 C 14.832031 -77.914062 19.066406 -82.789062 24.546875 -86.1875 C 30.035156 -89.59375 36.390625 -91.296875 43.609375 -91.296875 C 53.179688 -91.296875 60.851562 -88.625 66.625 -83.28125 C 72.394531 -77.945312 75.753906 -70.554688 76.703125 -61.109375 L 64.765625 -61.109375 C 63.734375 -68.285156 61.492188 -73.484375 58.046875 -76.703125 C 54.609375 -79.921875 49.796875 -81.53125 43.609375 -81.53125 C 36.023438 -81.53125 30.078125 -78.722656 25.765625 -73.109375 C 21.453125 -67.503906 19.296875 -59.523438 19.296875 -49.171875 L 19.296875 -40.453125 C 19.296875 -30.679688 21.335938 -22.90625 25.421875 -17.125 C 29.503906 -11.351562 35.21875 -8.46875 42.5625 -8.46875 C 49.15625 -8.46875 54.210938 -9.960938 57.734375 -12.953125 C 61.265625 -15.941406 63.609375 -21.148438 64.765625 -28.578125 Z M 76.703125 -28.578125 "/></g></g></g><g fill="#7786a7" fill-opacity="1"><g transform="translate(2551.22624, 1719.596967)"><g><path d="M 60.1875 -23.5 L 22.453125 -23.5 L 13.984375 0 L 1.734375 0 L 36.125 -90.0625 L 46.515625 -90.0625 L 80.96875 0 L 68.78125 0 Z M 26.046875 -33.28125 L 56.65625 -33.28125 L 41.328125 -75.40625 Z M 26.046875 -33.28125 "/></g></g></g><g fill="#7786a7" fill-opacity="1"><g transform="translate(2633.866438, 1719.596967)"><g><path d="M 72.6875 -80.296875 L 43.734375 -80.296875 L 43.734375 0 L 31.921875 0 L 31.921875 -80.296875 L 3.03125 -80.296875 L 3.03125 -90.0625 L 72.6875 -90.0625 Z M 72.6875 -80.296875 "/></g></g></g><g fill="#7786a7" fill-opacity="1"><g transform="translate(2709.455028, 1719.596967)"><g><path d="M 61.359375 -41.625 L 22.328125 -41.625 L 22.328125 -9.71875 L 67.671875 -9.71875 L 67.671875 0 L 10.453125 0 L 10.453125 -90.0625 L 67.0625 -90.0625 L 67.0625 -80.296875 L 22.328125 -80.296875 L 22.328125 -51.34375 L 61.359375 -51.34375 Z M 61.359375 -41.625 "/></g></g></g><g fill="#7786a7" fill-opacity="1"><g transform="translate(2781.455945, 1719.596967)"><g><path d="M 43.484375 -36.4375 L 22.328125 -36.4375 L 22.328125 0 L 10.390625 0 L 10.390625 -90.0625 L 40.203125 -90.0625 C 50.347656 -90.0625 58.148438 -87.75 63.609375 -83.125 C 69.078125 -78.507812 71.8125 -71.789062 71.8125 -62.96875 C 71.8125 -57.363281 70.296875 -52.476562 67.265625 -48.3125 C 64.234375 -44.144531 60.019531 -41.03125 54.625 -38.96875 L 75.78125 -0.75 L 75.78125 0 L 63.03125 0 Z M 22.328125 -46.140625 L 40.578125 -46.140625 C 46.472656 -46.140625 51.160156 -47.664062 54.640625 -50.71875 C 58.128906 -53.769531 59.875 -57.851562 59.875 -62.96875 C 59.875 -68.539062 58.210938 -72.8125 54.890625 -75.78125 C 51.578125 -78.75 46.785156 -80.253906 40.515625 -80.296875 L 22.328125 -80.296875 Z M 22.328125 -46.140625 "/></g></g></g><g fill="#7786a7" fill-opacity="1"><g transform="translate(2859.456967, 1719.596967)"><g><path d="M 23.203125 0 L 11.3125 0 L 11.3125 -90.0625 L 23.203125 -90.0625 Z M 23.203125 0 "/></g></g></g><g fill="#7786a7" fill-opacity="1"><g transform="translate(2893.910985, 1719.596967)"><g><path d="M 79.671875 0 L 67.734375 0 L 22.390625 -69.40625 L 22.390625 0 L 10.453125 0 L 10.453125 -90.0625 L 22.390625 -90.0625 L 67.859375 -20.359375 L 67.859375 -90.0625 L 79.671875 -90.0625 Z M 79.671875 0 "/></g></g></g><g fill="#7786a7" fill-opacity="1"><g transform="translate(2984.221413, 1719.596967)"><g><path d="M 76.953125 -11.8125 C 73.898438 -7.445312 69.640625 -4.179688 64.171875 -2.015625 C 58.710938 0.148438 52.351562 1.234375 45.09375 1.234375 C 37.75 1.234375 31.234375 -0.484375 25.546875 -3.921875 C 19.859375 -7.367188 15.457031 -12.265625 12.34375 -18.609375 C 9.226562 -24.960938 7.628906 -32.328125 7.546875 -40.703125 L 7.546875 -48.5625 C 7.546875 -62.125 10.707031 -72.632812 17.03125 -80.09375 C 23.363281 -87.5625 32.265625 -91.296875 43.734375 -91.296875 C 53.140625 -91.296875 60.707031 -88.894531 66.4375 -84.09375 C 72.164062 -79.289062 75.671875 -72.476562 76.953125 -63.65625 L 65.078125 -63.65625 C 62.847656 -75.570312 55.753906 -81.53125 43.796875 -81.53125 C 35.835938 -81.53125 29.804688 -78.734375 25.703125 -73.140625 C 21.597656 -67.554688 19.523438 -59.46875 19.484375 -48.875 L 19.484375 -41.5 C 19.484375 -31.40625 21.789062 -23.375 26.40625 -17.40625 C 31.03125 -11.445312 37.28125 -8.46875 45.15625 -8.46875 C 49.613281 -8.46875 53.507812 -8.960938 56.84375 -9.953125 C 60.1875 -10.941406 62.953125 -12.613281 65.140625 -14.96875 L 65.140625 -35.203125 L 44.296875 -35.203125 L 44.296875 -44.84375 L 76.953125 -44.84375 Z M 76.953125 -11.8125 "/></g></g></g></svg>